<?xml version="1.0" standalone="no"?>
<!DOCTYPE svg PUBLIC "-//W3C//DTD SVG 20010904//EN"
 "http://www.w3.org/TR/2001/REC-SVG-20010904/DTD/svg10.dtd">
<svg version="1.0" xmlns="http://www.w3.org/2000/svg"
 width="512.000000pt" height="512.000000pt" viewBox="0 0 512.000000 512.000000"
 preserveAspectRatio="xMidYMid meet">

<g transform="translate(0.000000,512.000000) scale(0.100000,-0.100000)"
fill="#000000" stroke="none">
<path d="M2380 5114 c-19 -2 -78 -9 -130 -14 -330 -36 -695 -160 -990 -336
-375 -224 -680 -529 -904 -904 -175 -292 -291 -632 -338 -990 -16 -123 -16
-497 0 -620 82 -623 356 -1150 820 -1581 256 -239 575 -425 922 -539 274 -91
491 -124 800 -124 228 0 329 9 530 50 689 141 1304 583 1674 1204 175 292 291
632 338 990 16 123 16 497 0 620 -47 358 -163 698 -338 990 -224 375 -529 680
-904 904 -289 173 -634 291 -980 336 -88 12 -438 21 -500 14z m-805 -1709
c219 -56 373 -242 376 -453 2 -96 -43 -154 -128 -168 -87 -14 -155 47 -172
154 -6 35 -19 78 -30 95 -28 46 -92 79 -152 79 -98 0 -170 -72 -184 -184 -12
-91 -80 -153 -162 -145 -85 9 -138 73 -136 169 5 292 307 525 588 453z m2180
0 c219 -56 374 -243 378 -453 2 -96 -51 -160 -136 -169 -82 -8 -150 54 -162
145 -14 112 -86 184 -184 184 -60 0 -124 -33 -152 -79 -11 -17 -24 -60 -30
-95 -17 -107 -85 -168 -172 -154 -85 14 -130 72 -128 168 4 293 305 525 586
453z m-2230 -1595 c14 -5 65 -44 112 -86 297 -259 669 -382 1044 -345 315 30
563 138 807 350 63 54 104 82 127 87 115 21 202 -67 180 -182 -5 -27 -23 -52
-68 -96 -309 -298 -734 -468 -1167 -468 -433 0 -858 170 -1167 468 -66 64 -81
100 -69 166 16 87 115 139 201 106z"/>
</g>
</svg>
